<?xml version="1.0" encoding="utf-8"?>
<!-- Generator: Adobe Illustrator 23.0.4, SVG Export Plug-In . SVG Version: 6.00 Build 0)  -->
<svg version="1.1" id="Calque_1" xmlns="http://www.w3.org/2000/svg" xmlns:xlink="http://www.w3.org/1999/xlink" x="0px" y="0px"
	 viewBox="0 0 1366 768" style="enable-background:new 0 0 1366 768;" xml:space="preserve">
<style type="text/css">
	.st0{fill:#D17B5E;}
</style>
<g>
	<path class="st0" d="M1077.9,296.1c0,0-10.9-15-2.9-38.4c8.4-24.6,12.4-27,16.2-31.4c11.3-12.9,20.3-23,26.1-28
		c11.5-9.9,13.5-9,13.5-9s8.3,4.5,0.5,15.6c-6.8,9.6-11.9,14.2-15.1,19.9c-1.5,2.7-7.5,10-7.5,10s-16,12.5-24.6,30.9
		C1076.8,281.3,1077.7,294.3,1077.9,296.1z"/>
	<path class="st0" d="M1079.6,297.1c0,0,1.1-22.8,13.3-37.7c19.7-24.1,26.3-27.8,30.4-32.4c4.1-4.5,18.8-17.1,22.4-21.2
		c3.5-4.1,23.3-28.2,24.3-31.8c1-3.5,10-20.8,11.8-22.5c1.8-1.8,5.1-5.5,8.8-4.7c3.7,0.8,3.5,0.6,2.2,11
		c-1.4,10.4-13.1,33.9-16.9,38.8c-3.7,4.9-15.2,18.8-15.2,18.8s-6.7,8.9-24.6,23.8C1114.4,257.3,1087.4,286.2,1079.6,297.1z"/>
	<path class="st0" d="M1044,337.5c0,0,7.9-14.3,11.8-19.2c7.2-9.3,20.5-16.4,24.4-19.3c3.9-2.9,45.8-45,48.2-47
		c2.4-2,23.7-20.3,26.2-23.5c2.5-3.1,8.8-9.6,10-10.6c1.2-1,20.3-21.6,22-23.8c1.8-2.2,15.3-21.5,15.7-22.4
		c1.8-3.9,11-23.9,19.6-22.2c0,0,5.7,0.4,4.1,6.3c-2.1,7.9-12.2,26.3-15.5,32.5c-3.3,6.3-28.4,36.5-30.6,38.7
		c-2.2,2.2-43.7,39.4-49.5,43.9c-6.4,5.1-32.4,22.4-37.2,24.8c-2.9,1.4-9.5,6.4-9.5,6.4s-25.1,10.7-33.7,38.2L1044,337.5z"/>
	<path class="st0" d="M1086.1,302.5c0,0,23.1-10.2,25-11.6c1.8-1.3,21-13.5,26.5-18.4c5.5-5,19.7-18.3,20.8-19.3
		c1-1,22.3-19,24.9-20.9c2.6-1.8,23.5-20.7,26.6-25.7c3.1-5,12.2-18.1,14.8-21.9c0,0,6.6-18.3,18.2-15.9c0,0,6.5-0.6-3.2,18.5
		c-9.7,19.1-19.7,33.2-27.3,40.2c-7.6,7.1-10.9,10.7-15.3,14.1c-4.4,3.4-20.6,14.7-26.3,19.4c-4.5,3.6-21.8,19.1-38.7,26.5
		C1115.3,295,1111.8,299.8,1086.1,302.5z"/>
	<path class="st0" d="M1089.8,304.3c0,0,4.4-0.5,10.5-0.3c6.1,0.2,14.3-2.3,19.9-5c5.2-2.5,29-14.8,34.6-18.9
		c5.6-4.1,23-18.7,27.1-21.6c4.1-2.9,20.9-14.7,20.9-14.7s6.3-3.2,12.2-7.4c5.9-4.1,7.7-7.4,12.4-11.5c5.7-4.9,14.4-16.3,19.6-8.4
		c0,0-0.6,10.8-26.1,31.4c-25.5,20.6-28.4,22-33.9,27.1c-5.5,5.1-26.2,21.2-41.7,26C1130.3,305.5,1116.2,315.1,1089.8,304.3z"/>
</g>
<g>
	<path class="st0" d="M163.7,340.2v-71.5h47.6v5.8h-40.8v25.8h36.9v5.8h-36.9v28.4h41.8v5.8H163.7z"/>
	<path class="st0" d="M229.8,340.2v-71.5h6.8v71.5H229.8z"/>
	<path class="st0" d="M264.8,277.8h-0.2v62.4h-6.8v-71.5h7.7l41.3,62.5h0.2v-62.5h6.8v71.5h-7.8L264.8,277.8z"/>
	<path class="st0" d="M332.7,340.2v-71.5h47.6v5.8h-40.8v25.8h36.9v5.8h-36.9v28.4h41.8v5.8H332.7z"/>
	<path class="st0" d="M426.7,340.2v-71.5h26.1c4.6,0,8.5,0.5,11.5,1.6c3,1.1,5.4,2.5,7.2,4.4c1.8,1.9,3,4,3.7,6.4c0.7,2.4,1,5,1,7.6
		c0,4-0.8,7.3-2.4,9.8c-1.6,2.6-3.7,4.6-6.3,6.1c-2.6,1.5-5.5,2.5-8.8,3.1c-3.3,0.6-6.6,0.9-9.9,0.9h-15.3v31.6H426.7z M449,302.9
		c3.2,0,6-0.2,8.5-0.6c2.5-0.4,4.7-1.1,6.4-2.2c1.8-1.1,3.1-2.6,4.1-4.5c1-1.9,1.4-4.4,1.4-7.4c0-4.5-1.5-7.9-4.4-10.2
		c-2.9-2.3-7.6-3.5-14.1-3.5h-17.5v28.4H449z"/>
	<path class="st0" d="M497.4,307.7v32.5l-6.8-0.1v-71.4h28c7.9,0,13.9,1.5,18.1,4.4c4.2,2.9,6.3,7.7,6.3,14.4
		c0,4.5-0.9,8.1-2.7,10.7c-1.8,2.6-4.8,4.9-8.9,6.8c2.1,0.7,3.8,1.8,5,3.2c1.2,1.4,2.1,3,2.7,4.8c0.6,1.8,1,3.7,1.1,5.7
		c0.2,2,0.3,3.9,0.3,5.8c0.1,2.7,0.2,5,0.3,6.8c0.2,1.8,0.4,3.2,0.6,4.4c0.2,1.1,0.5,2,0.8,2.6c0.3,0.6,0.7,1.1,1.2,1.4v0.6
		l-7.5,0.1c-0.7-1.2-1.2-2.8-1.5-5c-0.3-2.1-0.5-4.3-0.7-6.7c-0.2-2.3-0.3-4.6-0.4-6.8c-0.1-2.2-0.3-4-0.5-5.4
		c-0.4-1.9-1-3.5-1.9-4.6c-0.9-1.2-2-2-3.2-2.6c-1.3-0.6-2.7-1-4.2-1.2c-1.6-0.2-3.2-0.3-4.8-0.3H497.4z M518.4,302
		c2.5,0,4.9-0.3,7-0.8c2.2-0.5,4-1.4,5.6-2.5c1.6-1.2,2.8-2.6,3.8-4.4c0.9-1.8,1.4-3.9,1.4-6.5c0-2.6-0.5-4.8-1.4-6.6
		c-1-1.7-2.3-3.1-3.9-4.1c-1.6-1-3.5-1.7-5.6-2.1s-4.3-0.6-6.5-0.6h-21.5V302H518.4z"/>
	<path class="st0" d="M553.4,340.2l28.1-71.5h7.6l27.4,71.5h-7l-8.2-22.5h-32.6l-8.4,22.5H553.4z M571.1,312h28l-14-37.6L571.1,312z
		"/>
	<path class="st0" d="M651.4,308.6l-20.8,31.6h-7.7l24.6-36.8l-23.6-34.8h7.8l19.6,30.1l19.7-30.1h7.8l-23.4,34.8l24.5,36.8h-7.8
		L651.4,308.6z"/>
	<path class="st0" d="M695.3,340.2v-71.5h6.8v71.5H695.3z"/>
	<path class="st0" d="M726.3,318.9c0.3,3.2,1,5.9,2.1,8.1c1.2,2.2,2.6,4,4.5,5.4c1.8,1.4,3.9,2.4,6.3,3c2.4,0.6,4.9,0.9,7.7,0.9
		c3.2,0,5.9-0.4,8.2-1.2c2.3-0.8,4.2-1.9,5.7-3.2c1.5-1.4,2.5-2.9,3.2-4.7c0.7-1.8,1-3.7,1-5.7c0-2.8-0.6-5-1.9-6.8
		c-1.3-1.7-2.9-3.1-4.9-4.2c-2-1.1-4.3-2-7-2.6c-2.6-0.7-5.3-1.3-8-1.9c-2.7-0.6-5.4-1.4-8-2.2c-2.6-0.9-4.9-2-7-3.5
		c-2-1.5-3.7-3.3-4.9-5.6c-1.3-2.3-1.9-5.2-1.9-8.7c0-2.4,0.5-4.8,1.5-7.2c1-2.3,2.5-4.4,4.6-6.2c2-1.8,4.6-3.2,7.6-4.3
		c3-1.1,6.6-1.6,10.5-1.6c4,0,7.6,0.6,10.6,1.7c3,1.1,5.5,2.7,7.5,4.6c2,2,3.5,4.2,4.5,6.8c1,2.6,1.5,5.3,1.5,8.2h-6.5
		c0-2.7-0.5-5.1-1.4-7.1c-1-2-2.3-3.6-3.9-4.9c-1.7-1.3-3.5-2.2-5.7-2.8c-2.1-0.6-4.3-0.9-6.6-0.9c-3.4,0-6.3,0.5-8.7,1.4
		c-2.4,1-4.2,2.2-5.6,3.7c-1.4,1.5-2.4,3.2-2.9,5.1c-0.5,1.9-0.6,3.7-0.3,5.6c0.4,2.3,1.3,4.2,2.8,5.6c1.5,1.4,3.2,2.5,5.4,3.4
		c2.1,0.9,4.5,1.6,7,2.2c2.5,0.6,5.1,1.2,7.8,1.8c2.6,0.6,5.2,1.4,7.7,2.2c2.5,0.9,4.7,2,6.6,3.5c1.9,1.5,3.5,3.3,4.6,5.6
		c1.2,2.3,1.7,5.2,1.7,8.6c0,6.6-2.3,11.8-6.9,15.4c-4.6,3.6-11,5.5-19.3,5.5c-3.7,0-7.2-0.5-10.3-1.4c-3.2-1-5.9-2.4-8.2-4.4
		c-2.3-2-4.1-4.4-5.4-7.3c-1.3-2.9-1.9-6.3-1.9-10.2H726.3z"/>
	<path class="st0" d="M817.1,340.2v-71.5h46.1v5.8h-39.3v25.8h35.8v5.8h-35.8v34.2H817.1z"/>
	<path class="st0" d="M876.1,268.7h6.8v42.6c0,8.9,1.7,15.3,5,19.2c3.3,3.9,8.6,5.9,16,5.9c3.8,0,7.1-0.5,9.8-1.5
		c2.7-1,4.9-2.6,6.5-4.7c1.7-2.1,2.8-4.7,3.6-7.8c0.7-3.1,1.1-6.8,1.1-11v-42.6h6.8v44.6c0,9.3-2.3,16.5-6.9,21.4
		c-4.6,4.9-11.5,7.4-20.8,7.4c-9.3,0-16.3-2.5-20.9-7.6c-4.6-5-6.9-12.1-6.9-21.3V268.7z M893.3,252h6.5v10.1h-6.5V252z M909.1,252
		h6.5v10.1h-6.5V252z"/>
	<path class="st0" d="M957.4,307.7v32.5l-6.8-0.1v-71.4h28c7.9,0,13.9,1.5,18.1,4.4c4.2,2.9,6.3,7.7,6.3,14.4
		c0,4.5-0.9,8.1-2.7,10.7c-1.8,2.6-4.8,4.9-8.9,6.8c2.1,0.7,3.8,1.8,5,3.2c1.2,1.4,2.1,3,2.7,4.8c0.6,1.8,1,3.7,1.1,5.7
		c0.2,2,0.3,3.9,0.3,5.8c0.1,2.7,0.2,5,0.3,6.8c0.2,1.8,0.4,3.2,0.6,4.4c0.2,1.1,0.5,2,0.8,2.6c0.3,0.6,0.7,1.1,1.2,1.4v0.6
		l-7.5,0.1c-0.7-1.2-1.2-2.8-1.5-5c-0.3-2.1-0.5-4.3-0.7-6.7c-0.2-2.3-0.3-4.6-0.4-6.8s-0.3-4-0.5-5.4c-0.4-1.9-1-3.5-1.9-4.6
		c-0.9-1.2-2-2-3.2-2.6c-1.3-0.6-2.7-1-4.2-1.2c-1.6-0.2-3.2-0.3-4.8-0.3H957.4z M978.4,302c2.5,0,4.9-0.3,7-0.8
		c2.2-0.5,4-1.4,5.6-2.5c1.6-1.2,2.8-2.6,3.8-4.4c0.9-1.8,1.4-3.9,1.4-6.5c0-2.6-0.5-4.8-1.4-6.6c-1-1.7-2.3-3.1-3.9-4.1
		c-1.6-1-3.5-1.7-5.6-2.1c-2.1-0.4-4.3-0.6-6.5-0.6h-21.5V302H978.4z"/>
	<path class="st0" d="M170.5,397h-0.2v62.4h-6.8v-71.5h7.7l41.3,62.5h0.2v-62.5h6.8v71.5h-7.8L170.5,397z"/>
	<path class="st0" d="M231.9,459.4l28.1-71.5h7.6l27.4,71.5h-7l-8.2-22.5h-32.6l-8.4,22.5H231.9z M249.6,431.2h28l-14-37.6
		L249.6,431.2z"/>
	<path class="st0" d="M301.2,387.9h52.1v5.8h-22.7v65.8h-6.8v-65.8h-22.7V387.9z"/>
	<path class="st0" d="M366,387.9h6.8v42.6c0,8.9,1.7,15.3,5,19.2c3.3,3.9,8.6,5.9,16,5.9c3.8,0,7.1-0.5,9.8-1.5
		c2.7-1,4.9-2.6,6.5-4.7c1.7-2.1,2.8-4.7,3.6-7.8c0.7-3.1,1.1-6.8,1.1-11v-42.6h6.8v44.6c0,9.3-2.3,16.5-6.9,21.4
		c-4.6,4.9-11.5,7.4-20.8,7.4c-9.3,0-16.3-2.5-20.9-7.6c-4.6-5-6.9-12.1-6.9-21.3V387.9z"/>
	<path class="st0" d="M447.3,426.9v32.5l-6.8-0.1v-71.4h28c7.9,0,13.9,1.5,18.1,4.4c4.2,2.9,6.3,7.7,6.3,14.4
		c0,4.5-0.9,8.1-2.7,10.7c-1.8,2.6-4.8,4.9-8.9,6.8c2.1,0.7,3.8,1.8,5,3.2c1.2,1.4,2.1,3,2.7,4.8c0.6,1.8,1,3.7,1.1,5.7
		c0.2,2,0.3,3.9,0.3,5.8c0.1,2.7,0.2,5,0.3,6.8c0.2,1.8,0.4,3.2,0.6,4.4c0.2,1.1,0.5,2,0.8,2.6c0.3,0.6,0.7,1.1,1.2,1.4v0.6
		l-7.5,0.1c-0.7-1.2-1.2-2.8-1.5-5c-0.3-2.1-0.5-4.3-0.7-6.7c-0.2-2.3-0.3-4.6-0.4-6.8c-0.1-2.2-0.3-4-0.5-5.4
		c-0.4-1.9-1-3.5-1.9-4.6c-0.9-1.2-2-2-3.2-2.6c-1.3-0.6-2.7-1-4.2-1.2c-1.6-0.2-3.2-0.3-4.8-0.3H447.3z M468.4,421.2
		c2.5,0,4.9-0.3,7-0.8c2.2-0.5,4-1.4,5.6-2.5c1.6-1.2,2.8-2.6,3.8-4.4c0.9-1.8,1.4-3.9,1.4-6.5c0-2.6-0.5-4.8-1.4-6.6
		c-1-1.7-2.3-3.1-3.9-4.1c-1.6-1-3.5-1.7-5.6-2.1s-4.3-0.6-6.5-0.6h-21.5v27.5H468.4z"/>
	<path class="st0" d="M509.8,459.4v-71.5h6.8v30.7h42.3v-30.7h6.8v71.5h-6.8v-35.1h-42.3v35.1H509.8z"/>
	<path class="st0" d="M584.6,459.4v-71.5h47.6v5.8h-40.8v25.8h36.9v5.8h-36.9v28.4h41.8v5.8H584.6z"/>
	<path class="st0" d="M650.7,459.4v-71.5h6.8v71.5H650.7z"/>
	<path class="st0" d="M678.9,459.4v-71.5h6.8v65.8H724v5.8H678.9z"/>
	<path class="st0" d="M737.5,459.4v-71.5h6.8V425l36.7-37.1h7.7l-28.2,28.5l33.2,43h-8.2l-29.8-38.8l-11.2,11.2v27.6H737.5z"/>
	<path class="st0" d="M806.4,387.9h6.8v42.6c0,8.9,1.7,15.3,5,19.2c3.3,3.9,8.6,5.9,16,5.9c3.8,0,7.1-0.5,9.8-1.5
		c2.7-1,4.9-2.6,6.5-4.7c1.7-2.1,2.8-4.7,3.6-7.8c0.7-3.1,1.1-6.8,1.1-11v-42.6h6.8v44.6c0,9.3-2.3,16.5-6.9,21.4
		c-4.6,4.9-11.5,7.4-20.8,7.4c-9.3,0-16.3-2.5-20.9-7.6c-4.6-5-6.9-12.1-6.9-21.3V387.9z"/>
	<path class="st0" d="M887.8,397h-0.2v62.4h-6.8v-71.5h7.7l41.3,62.5h0.2v-62.5h6.8v71.5h-7.8L887.8,397z"/>
	<path class="st0" d="M955.8,459.4v-71.5h24.4c2,0,3.9,0,5.9,0.1c1.9,0.1,3.8,0.3,5.7,0.7c1.9,0.4,3.7,0.9,5.4,1.6
		c1.8,0.7,3.5,1.7,5.1,2.9c2.4,1.7,4.3,3.8,5.9,6.3c1.5,2.5,2.7,5.1,3.6,7.8c0.9,2.7,1.5,5.5,1.9,8.3c0.4,2.8,0.5,5.4,0.5,7.8
		c0,2.4-0.1,4.8-0.4,7.3c-0.3,2.5-0.8,4.9-1.4,7.2c-0.7,2.4-1.5,4.6-2.6,6.8c-1.1,2.2-2.5,4.1-4.1,5.9c-1.7,1.9-3.5,3.3-5.4,4.5
		c-2,1.1-4,2-6.2,2.6c-2.2,0.6-4.4,1.1-6.7,1.3c-2.3,0.2-4.7,0.3-7.1,0.3H955.8z M962.5,453.7h16.2c3,0,5.9-0.2,8.6-0.5
		c2.7-0.4,5.4-1.3,8.2-2.7c2.4-1.2,4.3-2.8,5.9-4.9c1.5-2.1,2.7-4.3,3.6-6.7c0.9-2.4,1.5-5,1.9-7.6c0.4-2.6,0.5-5.2,0.5-7.7
		c0-2.6-0.2-5.2-0.5-7.9c-0.3-2.7-1-5.2-1.9-7.6c-0.9-2.4-2.2-4.6-3.8-6.7c-1.6-2-3.6-3.7-6.2-5c-2.1-1.1-4.6-1.9-7.6-2.2
		c-2.9-0.3-5.9-0.5-8.8-0.5h-16.2V453.7z"/>
	<path class="st0" d="M1030.5,459.4v-71.5h47.6v5.8h-40.8v25.8h36.9v5.8h-36.9v28.4h41.8v5.8H1030.5z"/>
</g>
</svg>
